<svg xmlns="http://www.w3.org/2000/svg" xmlns:xlink="http://www.w3.org/1999/xlink" width="48" height="48" viewBox="0 0 48 48"><defs><clipPath id="a"><rect width="48" height="48" fill="none"/></clipPath><clipPath id="c"><rect width="48" height="48"/></clipPath></defs><g id="b" clip-path="url(#c)"><rect width="48" height="48" fill="#fff"/><g clip-path="url(#a)"><g transform="translate(-32)"><path d="M0,0H16V16Z" transform="translate(32)" fill="#004578"/></g><g transform="translate(-16)"><path d="M0,0H16V16Z" transform="translate(32)" fill="#004578"/></g><path d="M0,0H16V16Z" transform="translate(32)" fill="#004578"/><g transform="translate(-32 16)"><path d="M0,0H16V16Z" transform="translate(32)" fill="#004578"/></g><g transform="translate(-16 16)"><path d="M0,0H16V16Z" transform="translate(32)" fill="#004578"/></g><g transform="translate(0 16)"><path d="M0,0H16V16Z" transform="translate(32)" fill="#004578"/></g><g transform="translate(-32 32)"><path d="M0,0H16V16Z" transform="translate(32)" fill="#004578"/></g><g transform="translate(-16 32)"><path d="M0,0H16V16Z" transform="translate(32)" fill="#004578"/></g><g transform="translate(0 32)"><path d="M0,0H16V16Z" transform="translate(32)" fill="#004578"/></g></g></g></svg>